<?xml version="1.0" standalone="no"?>
<!DOCTYPE svg PUBLIC "-//W3C//DTD SVG 20010904//EN"
 "http://www.w3.org/TR/2001/REC-SVG-20010904/DTD/svg10.dtd">
<svg version="1.0" xmlns="http://www.w3.org/2000/svg"
 width="900.000000pt" height="900.000000pt" viewBox="0 0 900.000000 900.000000"
 preserveAspectRatio="xMidYMid meet">
<metadata>
Created by potrace 1.14, written by Peter Selinger 2001-2017
</metadata>
<g transform="translate(0.000000,900.000000) scale(0.100000,-0.100000)"
fill="#000000" stroke="none">
<path d="M664 8945 c-187 -41 -334 -187 -379 -377 -18 -79 -18 -125 -1 -210
38 -179 166 -317 351 -379 33 -11 318 -15 1537 -19 l1497 -5 -1685 -3624
c-1337 -2874 -1689 -3640 -1702 -3698 -13 -63 -14 -87 -4 -156 32 -222 193
-389 413 -428 151 -27 321 29 433 144 73 74 -41 -162 1005 2087 l797 1715
1333 3 c1273 2 1332 1 1327 -16 -3 -9 -346 -749 -762 -1642 -415 -894 -762
-1650 -770 -1680 -64 -244 74 -498 322 -592 l59 -23 1907 -3 c2084 -3 1981 -5
2104 55 122 59 225 193 259 335 18 79 18 125 1 210 -38 179 -166 317 -351 379
-33 11 -318 15 -1537 19 l-1497 5 1685 3624 c1337 2874 1689 3640 1702 3698
13 63 14 87 4 156 -32 222 -193 389 -413 428 -151 27 -321 -29 -433 -144 -73
-74 41 161 -1005 -2087 l-797 -1715 -1333 -3 c-1273 -2 -1332 -1 -1327 16 3 9
346 749 762 1642 415 894 762 1650 770 1680 64 244 -74 498 -322 592 l-59 23
-1915 2 c-1570 1 -1926 -1 -1976 -12z"/>
</g>
</svg>
