<svg width="954" height="973" viewBox="0 0 954 973" fill="none" xmlns="http://www.w3.org/2000/svg">
<path fill-rule="evenodd" clip-rule="evenodd" d="M406.132 0.87143C479.274 -9.1824 531.434 70.1073 587.942 117.622C639.971 161.371 695.181 202.667 720.936 265.577C748.023 331.739 754.711 405.967 734.005 474.395C713.033 543.703 671.82 612.375 606.526 643.681C544.67 673.338 474.585 636.055 406.132 631.596C343.824 627.538 274.112 655.799 223.847 618.756C173.628 581.745 177.072 507.883 157.77 448.56C138.458 389.205 90.4628 330.91 111.017 271.974C131.542 213.124 211.439 205.23 257.338 163.066C312.725 112.186 331.623 11.1131 406.132 0.87143Z" fill="#294B59"/>
<path fill-rule="evenodd" clip-rule="evenodd" d="M320.934 312.423C375.778 326.12 424.563 350.361 470.25 383.65C515.872 416.892 556.822 454.131 583.611 503.818C615.243 562.488 656.183 628.015 636.303 691.636C616.399 755.335 539.018 775.827 485.964 816.311C431.172 858.121 389.17 941.98 320.934 932.285C250.692 922.306 232.197 828.315 186.786 773.806C155.327 736.045 122.659 703.534 95.9786 662.259C58.5749 604.394 -1.72044 553.779 0.0376005 484.901C1.94993 409.977 39.3991 328.014 105.415 292.531C170.557 257.518 249.183 294.503 320.934 312.423Z" fill="#295659" fill-opacity="0.74"/>
<path fill-rule="evenodd" clip-rule="evenodd" d="M247.518 351.342C288.575 292.817 336.616 235.965 404.219 212.711C470.156 190.031 539.57 212.836 607.755 227.428C679.031 242.682 763.805 241.768 808.617 299.256C853.249 356.512 842.777 439.568 828.623 510.772C816.934 569.58 764.7 607.234 736.845 660.329C705.237 720.577 710.405 802.408 654.947 841.82C595.989 883.719 515.325 884.188 444.871 867.826C373.467 851.243 313.62 805.896 264.804 751.211C214.493 694.853 168.023 629.522 164.76 554.045C161.529 479.302 204.552 412.587 247.518 351.342Z" fill="#293459" fill-opacity="0.73"/>
</svg>
